<svg xmlns="http://www.w3.org/2000/svg" viewBox="0 0 1000 1000" preserveAspectRatio="xMidYMid meet"><defs><radialGradient id="g" cx="500" cy="500" r="500" gradientUnits="userSpaceOnUse"><stop offset="0" stop-color="#fff"/><stop offset=".45" stop-color="#fff" stop-opacity=".45"/><stop offset="1" stop-color="#fff" stop-opacity="0"/></radialGradient><filter id="b" x="-.2" y="-.2" width="1.4" height="1.4"><feGaussianBlur stdDeviation="9"/></filter></defs><g fill="url(#g)" filter="url(#b)"><path d="M500,500 L17.5,368.8 L25.4,342.5Z" opacity="0.64"/><path d="M500,500 L57.8,266.7 L70.1,244.8Z" opacity="0.64"/><path d="M500,500 L135.1,158.1 L187.4,109.8Z" opacity="0.86"/><path d="M500,500 L196,103 L241.2,72.2Z" opacity="0.57"/><path d="M500,500 L302.9,40.5 L328.6,30.3Z" opacity="0.53"/><path d="M500,500 L431.2,4.8 L504,0Z" opacity="0.88"/><path d="M500,500 L557.1,3.3 L589.8,8.1Z" opacity="0.59"/><path d="M500,500 L641.9,20.6 L704.6,43.8Z" opacity="0.91"/><path d="M500,500 L775.7,82.9 L797.3,98Z" opacity="0.76"/><path d="M500,500 L844.8,137.9 L881,176.2Z" opacity="0.51"/><path d="M500,500 L918.4,226.3 L932.4,248.9Z" opacity="0.96"/><path d="M500,500 L971.9,334.8 L987.3,387.9Z" opacity="0.58"/></g></svg>